<?xml version="1.0" encoding="UTF-8"?>
<svg width="531px" height="531px" viewBox="0 0 531 531" version="1.1" xmlns="http://www.w3.org/2000/svg" xmlns:xlink="http://www.w3.org/1999/xlink">
    <!-- Generator: Sketch 64 (93537) - https://sketch.com -->
    <title>Combined Shape</title>
    <desc>Created with Sketch.</desc>
    <g id="Page-1" stroke="none" stroke-width="1" fill="none" fill-rule="evenodd">
        <path d="M531,0 L531,531 L489.742337,531.001012 C489.912689,529.35716 490,527.688732 490,526 L490,484.4 C490,410.2 429.8,350 355.6,350 L338.9,350 C316.7,360.2 292,366 266,366 C240,366 215.4,360.2 193.1,350 L176.4,350 C102.2,350 42,410.2 42,484.4 L42,526 C42,527.688732 42.0873109,529.35716 42.2576626,531.001012 L0,531 L0,0 L531,0 Z M266,62 C195.3,62 138,119.3 138,190 C138,260.7 195.3,318 266,318 C336.7,318 394,260.7 394,190 C394,119.3 336.7,62 266,62 Z" id="Combined-Shape" fill="#000000"></path>
    </g>
</svg>